<?xml version="1.0" encoding="UTF-8" standalone="no"?>
<!-- Created with Inkscape (http://www.inkscape.org/) -->

<svg
   width="1000"
   height="1000"
   viewBox="0 0 1000 1000"
   version="1.1"
   id="svg5"
   xmlns="http://www.w3.org/2000/svg"
   xmlns:svg="http://www.w3.org/2000/svg"
   xmlns:rdf="http://www.w3.org/1999/02/22-rdf-syntax-ns#"
   xmlns:cc="http://creativecommons.org/ns#"
   xmlns:dc="http://purl.org/dc/elements/1.1/">
  <defs
     id="defs2" />
  <g
     id="layer1"
     style="fill:#1a1a1a">
    <path
       id="path52"
       style="fill:#1a1a1a;fill-opacity:1;stroke:none;stroke-width:1.39102px;stroke-linecap:butt;stroke-linejoin:miter;stroke-opacity:1"
       d="m 135.04021,39.077369 c -9.86442,-0.429925 -17.70964,2.284147 -24.3455,9.057907 -10.61736,10.838017 -18.136382,32.070533 -20.569112,50.649849 -2.43273,18.579325 0.22234,34.503335 0.88569,47.552645 0.66334,13.04931 -0.6644,23.22469 0.6629,38.04376 1.32728,14.81906 5.30854,34.28092 7.52018,52.63856 2.211652,18.35765 2.652952,35.60972 1.325812,56.62144 -1.327142,21.01171 -4.422642,45.78151 1.32853,68.34184 5.75118,22.56032 20.34751,42.90858 25.65502,56.17859 5.30755,13.26989 1.32735,19.46387 -2.2115,30.08072 -3.53883,10.61682 -6.63452,25.65486 -4.64305,35.38669 1.99147,9.73185 9.06726,14.15641 10.61465,26.76348 1.54737,12.60708 -2.43296,33.39733 -4.86585,55.07285 -2.43289,21.67551 -3.31794,44.23494 -2.65433,68.56461 0.66361,24.32957 2.87518,50.4275 11.28026,76.7477 8.40507,26.32019 23.00253,52.85908 42.02392,80.28501 19.02139,27.42592 42.46623,55.7358 66.79595,75.19912 24.32974,19.46331 49.54289,30.08188 68.12177,35.83224 18.57888,5.75037 30.52303,6.63263 52.19843,15.03765 21.67541,8.40504 53.07972,24.33001 79.84217,33.39797 13.80963,4.67918 26.31615,7.48077 37.34825,9.02533 3.08226,0.67708 6.53919,1.13974 10.49783,1.36928 1.02708,0.0595 2.32926,-0.0252 3.41777,0.005 1.72097,0.0854 3.11874,-0.008 4.73,0.0109 1.61128,-0.0191 3.00903,0.0751 4.73,-0.0109 1.08852,-0.0303 2.39068,0.0543 3.41776,-0.005 3.95864,-0.22954 7.41556,-0.6922 10.49784,-1.36928 11.03144,-1.54464 23.537,-4.34653 37.34552,-9.02533 26.76245,-9.06796 58.16948,-24.99293 79.84488,-33.39797 21.6754,-8.40502 33.61956,-9.28728 52.19844,-15.03765 18.57887,-5.75036 43.79203,-16.36893 68.12178,-35.83224 24.32972,-19.46332 47.77184,-47.7732 66.79324,-75.19912 19.02139,-27.42593 33.61883,-53.96482 42.02391,-80.28501 8.40508,-26.3202 10.61666,-52.41811 11.28027,-76.7477 0.66359,-24.32961 -0.21874,-46.8891 -2.65163,-68.56461 -2.43289,-21.67552 -6.41594,-42.46577 -4.86855,-55.07285 1.54738,-12.60707 8.62589,-17.03163 10.61736,-26.76348 1.99146,-9.73183 -1.10421,-24.76989 -4.64306,-35.38669 -3.53884,-10.61684 -7.52174,-16.81083 -2.21421,-30.08072 5.30752,-13.26991 19.90656,-33.61827 25.65773,-56.17859 5.75117,-22.56033 2.65295,-47.33013 1.32581,-68.34184 -1.32714,-21.01172 -0.88312,-38.26379 1.32854,-56.62144 2.21164,-18.35764 6.19289,-37.8195 7.52018,-52.63856 1.32728,-14.81907 -4.3e-4,-24.99445 0.6629,-38.04376 0.66336,-13.04931 3.31843,-28.97332 0.88568,-47.552645 -2.43272,-18.579316 -9.95446,-39.811832 -20.57183,-50.649849 -10.61734,-10.838017 -24.3281,-11.279367 -44.45546,-5.085904 -20.12739,6.193463 -46.66786,19.021766 -71.88186,40.255256 -25.214,21.233492 -49.10153,50.869652 -69.00746,75.199112 -19.90597,24.32946 -35.8302,43.34931 -47.55266,56.39865 -11.72245,13.04934 -19.24191,20.12713 -29.19505,25.43495 -9.95312,5.30779 -22.33824,8.84548 -32.51229,10.61464 -10.17399,1.76917 -18.13579,1.77134 -29.85794,-0.88296 -11.72217,-2.6543 -42.63509,-8.77916 -64.253,-8.80524 -22.00542,-0.0266 -53.70451,6.15094 -65.42668,8.80524 -11.72215,2.6543 -19.68394,2.65213 -29.85794,0.88296 -10.17401,-1.76916 -22.55917,-5.30685 -32.51231,-10.61464 -9.95312,-5.30782 -17.47258,-12.38561 -29.19504,-25.43495 -11.72245,-13.04934 -27.64669,-32.06919 -47.55265,-56.39865 -19.90595,-24.32946 -43.79344,-53.96562 -69.00747,-75.199112 -25.21398,-21.23349 -51.75449,-34.061793 -71.88186,-40.255256 -7.54778,-2.322548 -14.194,-3.714061 -20.11268,-3.972003 z m 7.06648,47.147849 c 2.23607,0.228128 4.97197,1.169331 8.40043,2.828219 13.71382,6.635538 38.48495,24.772653 61.48726,45.121093 13.02594,11.52304 25.33583,23.86496 36.54408,37.04667 -2.74767,-0.47584 -5.451,-0.98265 -8.32708,-1.36111 -11.14328,-1.46634 -23.14187,-2.26071 -33.78106,-2.3066 -6.38349,-0.0275 -12.27899,0.21392 -17.20568,0.7417 -13.13781,1.40738 -19.39322,4.84882 -16.89051,6.56929 2.5027,1.72053 13.76253,1.71903 28.77665,4.53438 15.01413,2.81535 33.78277,8.44482 51.29916,14.70077 6.27134,2.2398 12.16877,4.42386 17.70286,6.37912 0.56774,0.91189 1.24711,1.74998 1.80126,2.67063 -1.64887,-0.46753 -3.23505,-0.98134 -4.95823,-1.38557 -12.66814,-2.97183 -27.057,-4.22182 -41.13278,-4.22196 -14.07577,-1.4e-4 -27.83966,1.24881 -36.59841,3.28192 -8.75874,2.03313 -12.51177,4.85036 -7.50659,6.41444 5.00518,1.56407 18.76493,1.87504 33.15345,3.75195 14.38856,1.8769 29.40174,5.31944 43.47743,10.0115 10.28442,3.42827 20.0131,7.46889 27.28238,9.06063 0.21928,0.49186 0.41959,0.98306 0.63576,1.47524 -4.2142,-0.80241 -8.57845,-1.48116 -13.05981,-1.93438 -6.95967,-0.70388 -13.95512,-1.05681 -20.89512,-1.05685 -6.94003,-4e-5 -13.82224,0.35041 -20.54737,1.05413 -13.45026,1.40744 -26.27674,4.22295 -33.15892,6.56929 -6.88213,2.34634 -7.81806,4.22232 5.00712,5.31684 12.82519,1.09451 39.41256,1.40964 59.90065,5.00712 13.37855,2.3491 23.86067,5.9269 31.81949,7.94129 3.52164,10.00041 6.65885,19.816 9.11226,28.81197 6.63521,24.32953 9.7319,43.34894 21.01195,46.88703 11.28004,3.53808 30.74151,-8.40557 51.08997,-19.24329 20.34843,-10.83774 39.62544,-22.02382 61.48726,-26.5407 40.45587,-8.35858 83.47503,-8.3589 123.93089,0 21.86102,4.51688 41.13613,15.70296 61.48455,26.5407 20.34845,10.83772 39.81265,22.78137 51.09269,19.24329 11.28003,-3.53809 14.37674,-22.5575 21.01194,-46.88703 2.4534,-8.99597 5.59062,-18.81156 9.11225,-28.81197 7.95884,-2.01439 18.44095,-5.59219 31.81951,-7.94129 20.48809,-3.59748 47.07546,-3.91261 59.90064,-5.00712 12.82519,-1.09452 11.88923,-2.9705 5.00712,-5.31684 -6.88218,-2.34634 -19.70866,-5.16185 -33.15891,-6.56929 -6.72513,-0.70372 -13.60464,-1.05417 -20.54466,-1.05413 -6.94,4e-5 -13.93816,0.35297 -20.89784,1.05685 -4.48137,0.45322 -8.84561,1.13197 -13.0598,1.93438 0.21616,-0.49218 0.41644,-0.98338 0.63574,-1.47524 7.26932,-1.59174 16.99798,-5.63236 27.2824,-9.06063 14.07568,-4.69206 29.08886,-8.1346 43.47741,-10.0115 14.38854,-1.87691 28.151,-2.18788 33.15617,-3.75195 5.00519,-1.56408 1.24944,-4.38131 -7.5093,-6.41444 -8.75874,-2.03311 -22.51992,-3.28206 -36.5957,-3.28192 -14.07577,1.4e-4 -28.46463,1.25013 -41.13279,4.22196 -1.72357,0.40432 -3.31169,0.91792 -4.96093,1.38557 0.55416,-0.92065 1.23356,-1.75874 1.80125,-2.67063 5.53408,-1.95526 11.43426,-4.13932 17.70559,-6.37912 17.51639,-6.25595 36.28231,-11.88542 51.29644,-14.70077 15.01412,-2.81535 26.27396,-2.81382 28.77666,-4.53438 2.50269,-1.7205 -3.7527,-5.16191 -16.89052,-6.56929 -4.92669,-0.52778 -10.82222,-0.76923 -17.20568,-0.7417 -10.6392,0.0459 -22.63506,0.84026 -33.77834,2.3066 -2.8764,0.37851 -5.58182,0.88522 -8.3298,1.36111 11.20826,-13.18171 23.51815,-25.52363 36.54407,-37.04667 23.00239,-20.34844 47.77345,-38.485555 61.48727,-45.121093 13.7138,-6.635539 16.36625,-1.770526 20.12627,14.154673 3.75997,15.92519 8.62668,42.90828 9.06878,69.00747 0.44208,26.09916 -3.53892,51.31236 -7.52019,71.88186 -3.98127,20.56949 -7.96339,36.49516 -7.96302,52.19842 3.7e-4,15.70328 3.98148,31.18406 4.86585,44.01263 0.88438,12.8286 -1.32765,23.00305 -6.41445,17.25187 -5.08677,-5.7512 -13.04683,-27.42577 -21.89492,-36.71523 -8.84808,-9.28945 -18.5816,-6.19398 -23.88907,-0.44284 -5.30747,5.75114 -6.19143,14.15692 -15.26043,19.2433 -9.06905,5.08636 -26.31947,6.85443 -29.41511,12.82615 -3.0956,5.97174 7.96213,16.14509 14.59752,28.08929 6.6354,11.94422 8.84659,25.65785 16.80903,41.36101 1.76812,3.48701 3.89212,7.10797 6.09656,10.79124 -6.96983,-5.0404 -14.30029,-9.71065 -21.68301,-13.66836 -21.4546,-11.50136 -43.13009,-17.25128 -63.47871,-19.02052 -5.08717,-0.44231 -10.09186,-0.63599 -14.70892,-0.62215 -13.85121,0.0414 -24.21641,1.95105 -22.88927,4.60502 1.76946,3.53863 24.3276,8.4019 51.5328,23.22073 27.20523,14.81884 59.05496,39.5903 79.62483,65.24737 10.39466,12.96541 17.88192,26.10341 23.4571,36.38105 0.0147,1.18379 0.0924,2.52213 0.0924,3.65413 -1.2e-4,16.14604 -1.3289,26.76179 -0.22276,38.48389 1.10613,11.72211 4.64629,24.54927 1.32852,24.10643 -3.31778,-0.44283 -13.49366,-14.15321 -25.43766,-24.10643 -11.94402,-9.95321 -25.65595,-16.14658 -36.71523,-18.80046 -11.05929,-2.65386 -19.46339,-1.76946 -17.47194,4.86585 1.99146,6.6353 14.37582,19.02043 26.54071,35.16663 12.16488,16.14619 24.1098,36.0521 32.07216,53.30418 7.96236,17.25209 11.94228,31.84933 10.61466,46.88976 -1.32761,15.04044 -7.96325,30.52292 -13.27172,40.91816 -5.30846,10.39522 -9.28876,15.70166 -17.47192,14.5948 -8.18325,-1.10685 -20.56851,-8.62455 -30.9637,-15.92332 -10.39519,-7.29879 -18.79898,-14.37872 -16.80903,-22.34049 1.99001,-7.96178 14.37536,-16.80726 23.88637,-28.52943 9.511,-11.72216 16.14568,-26.32033 14.15467,-28.53214 -1.99101,-2.2118 -12.60728,7.96352 -23.66629,15.48321 -11.05901,7.51969 -22.56105,12.38377 -24.10914,11.72039 -1.54808,-0.66336 6.8586,-6.8553 13.49449,-19.68342 6.63587,-12.82812 11.50053,-32.29183 11.0575,-40.91815 -0.44304,-8.6263 -6.19318,-6.41355 -16.14612,0.88569 -9.95293,7.29923 -24.109,19.68452 -37.60091,27.64645 -13.49191,7.96193 -26.31899,11.49997 -39.58964,14.81758 -13.27064,3.31762 -26.98321,6.41483 -34.72379,11.06021 -7.74057,4.64539 -9.5104,10.83918 -4.423,20.34905 5.08741,9.50987 17.03037,22.33714 28.0893,35.3867 11.05891,13.04953 21.23369,26.32053 26.32064,40.25525 5.08695,13.93478 5.08693,28.53055 0.6629,44.45547 -4.42403,15.92494 -13.27008,33.17618 -26.98354,46.00407 -13.71349,12.82781 -32.29369,21.23309 -47.11253,26.98354 -9.87545,3.83216 -17.69347,6.36294 -24.81823,8.62322 -3.3723,-2.05416 -7.72506,-4.25659 -12.54089,-6.48235 -9.3057,-4.30089 -20.25432,-8.67876 -30.0291,-12.4322 -9.77478,-3.75353 -18.3755,-6.88301 -26.89932,-8.83785 -6.19223,-1.42014 -12.33474,-2.00776 -18.44457,-1.85833 0.1195,-0.95835 0.0685,-0.84119 0.28527,-2.17617 0.7924,-4.88013 4.53517,-30.62819 7.72938,-34.90582 4.61323,-6.17793 10.71389,-10.24477 14.23347,-15.56199 3.51956,-5.31725 4.45765,-11.88486 6.80294,-15.40442 2.3453,-3.51956 6.09751,-3.98779 11.25855,-6.02049 5.16102,-2.03286 11.7304,-5.63061 17.04809,-10.0876 5.31769,-4.45696 9.38427,-9.77304 9.46271,-13.21466 0.0785,-3.4416 -3.83269,-5.0054 -7.27296,-8.68025 -3.44018,-3.67488 -6.41048,-9.46148 -11.33732,-14.38833 -4.92686,-4.92687 -11.80905,-8.99444 -17.51812,-10.24517 -1.42726,-0.31268 -2.77947,-0.44887 -4.0698,-0.42926 -3.87102,0.0589 -7.17005,1.52516 -10.16093,3.87148 -3.98783,3.12844 -7.43056,7.81953 -12.1225,9.93001 -2.45079,1.10239 -5.21549,1.7143 -7.75654,1.71433 -2.54181,3e-5 -5.30755,-0.61152 -7.75926,-1.71433 -4.69192,-2.11048 -8.13466,-6.80157 -12.1225,-9.93001 -2.99087,-2.34632 -6.28992,-3.81264 -10.16094,-3.87148 -1.29034,-0.0196 -2.64255,0.11658 -4.06981,0.42926 -5.70907,1.25073 -12.59126,5.3183 -17.51812,10.24517 -4.92684,4.92685 -7.89714,10.71345 -11.33732,14.38833 -3.44018,3.67485 -7.35135,5.23865 -7.27294,8.68025 0.0785,3.44162 4.14502,8.7577 9.4627,13.21466 5.31769,4.45699 11.88707,8.05475 17.04811,10.0876 5.16103,2.03278 8.91324,2.50093 11.25854,6.02049 2.34529,3.51956 3.28334,10.08717 6.80294,15.40442 3.51957,5.31722 9.62025,9.38406 14.23346,15.56199 3.19542,4.27925 6.93619,30.03005 7.72938,34.91127 0.20284,1.24819 0.16677,1.11797 0.28799,2.03489 -0.8516,-0.0215 -1.70077,-0.0997 -2.55383,-0.0842 -5.26615,0.0953 -10.56333,0.85658 -15.89073,2.07838 -8.52381,1.95484 -17.12453,5.08432 -26.89932,8.83785 -9.77477,3.75348 -20.72341,8.13129 -30.02911,12.4322 -4.81678,2.2262 -9.17103,4.42784 -12.5436,6.48235 -7.12477,-2.26027 -14.94279,-4.79106 -24.81823,-8.62322 -14.81885,-5.75045 -33.39634,-14.15577 -47.10982,-26.98354 -13.71346,-12.82783 -22.55952,-30.07912 -26.98355,-46.00407 -4.42401,-15.92492 -4.42404,-30.52064 0.6629,-44.45547 5.08697,-13.93478 15.25902,-27.20572 26.31794,-40.25525 11.05893,-13.04956 23.0019,-25.87683 28.0893,-35.3867 5.08741,-9.50987 3.32028,-15.70366 -4.42029,-20.34905 -7.74057,-4.64538 -21.45315,-7.74259 -34.72379,-11.06021 -13.27066,-3.31761 -26.10043,-6.85565 -39.59235,-14.81758 -13.49191,-7.96193 -27.64526,-20.34722 -37.5982,-27.64645 -9.95293,-7.29924 -15.70307,-9.51199 -16.14611,-0.88569 -0.44303,8.62632 4.42162,28.09004 11.0575,40.91815 6.63588,12.82813 15.03986,19.02007 13.49176,19.68342 -1.54808,0.66338 -13.04739,-4.2007 -24.10641,-11.72039 -11.059,-7.51969 -21.67528,-17.695 -23.66631,-15.48321 -1.99099,2.21181 4.64368,16.80998 14.15469,28.53214 9.511,11.72217 21.89634,20.56765 23.88637,28.52943 1.98995,7.96177 -6.41383,15.0417 -16.80904,22.34049 -10.39517,7.29876 -22.78045,14.81647 -30.9637,15.92332 -8.18324,1.10686 -12.16617,-4.19958 -17.47464,-14.5948 -5.30848,-10.39524 -11.94411,-25.87772 -13.2717,-40.91816 -1.32762,-15.04043 2.65499,-29.63766 10.61736,-46.88976 7.96236,-17.25208 19.90457,-37.15798 32.06945,-53.30418 12.16488,-16.1462 24.55194,-28.53133 26.54341,-35.16663 1.99145,-6.63531 -6.41263,-7.51971 -17.47192,-4.86585 -11.0593,2.65388 -24.77392,8.84726 -36.71794,18.80046 -11.944,9.95322 -22.11718,23.6636 -25.43496,24.10643 -3.31777,0.44285 0.22239,-12.38432 1.32853,-24.10643 1.10614,-11.7221 -0.22264,-22.33785 -0.22277,-38.48389 -3e-5,-1.12946 0.0749,-2.46496 0.0896,-3.64597 5.57574,-10.27911 13.06173,-23.41954 23.45982,-36.38921 20.56984,-25.65706 52.41961,-50.42853 79.62481,-65.24737 27.20523,-14.81883 49.76341,-19.6821 51.53282,-23.22073 1.32709,-2.65396 -9.0408,-4.56352 -22.89201,-4.60502 -4.61707,-0.0139 -9.61902,0.17984 -14.70618,0.62215 -20.34862,1.76924 -42.02411,7.51916 -63.47872,19.02052 -7.38396,3.95838 -14.71486,8.62968 -21.68572,13.67109 2.20491,-3.68402 4.3281,-7.30629 6.09656,-10.79397 7.96244,-15.70316 10.17634,-29.41675 16.81174,-41.36101 6.6354,-11.9442 17.69314,-22.11755 14.59753,-28.08929 -3.09564,-5.97172 -20.34608,-7.73979 -29.41513,-12.82615 -9.06903,-5.08638 -9.95566,-13.49216 -15.26313,-19.2433 -5.30746,-5.75114 -15.03827,-8.84661 -23.88637,0.44285 -8.84808,9.28945 -16.81083,30.96402 -21.89763,36.71522 -5.0868,5.75118 -7.29881,-4.4232 -6.41443,-17.25187 0.88438,-12.82857 4.86547,-28.30935 4.86583,-44.01263 3.6e-4,-15.70326 -3.97903,-31.62893 -7.9603,-52.19842 -3.98129,-20.5695 -7.96227,-45.7827 -7.52018,-71.88186 0.44208,-26.09919 5.30607,-53.08227 9.06605,-69.00747 2.82001,-11.943885 5.02035,-17.667273 11.72855,-16.982891 z M 500,292.16628 c -7.11915,0 -14.23967,0.52857 -21.24017,1.58391 -7.66675,1.1558 -19.45911,3.64937 -22.22365,6.85728 -2.76455,3.20793 1.43801,7.85198 4.86582,15.04037 3.4278,7.18839 6.08106,16.91956 4.64307,25.32356 -1.43801,8.404 -6.96774,15.48326 -7.07734,20.01759 -0.10962,4.53435 5.19949,6.52324 10.72875,10.72605 5.52925,4.2028 11.27563,10.61739 13.1549,18.469 1.8792,7.85161 -0.1117,17.14017 -0.88569,28.7522 -0.77397,11.61205 -0.32789,25.54711 -0.21735,35.38942 0.11059,9.84232 -0.11016,15.59114 0.44285,24.88072 0.55305,9.28958 1.87805,22.11786 4.64306,33.39798 2.76501,11.28012 6.96743,21.01177 11.61172,22.00632 0.51428,0.11016 1.03067,0.095 1.55132,-0.0136 0.52154,0.1085 1.04156,0.12334 1.55674,0.0136 4.64426,-0.99455 8.84669,-10.7262 11.61171,-22.00632 2.76502,-11.28012 4.09001,-24.1084 4.64306,-33.39798 0.55301,-9.28958 0.33227,-15.0384 0.44285,-24.88072 0.11059,-9.84231 0.55663,-23.77737 -0.21735,-35.38942 -0.77399,-11.61203 -2.76488,-20.90059 -0.88569,-28.7522 1.87921,-7.85161 7.62565,-14.2662 13.1549,-18.469 5.52926,-4.20281 10.83837,-6.1917 10.72876,-10.72605 -0.10962,-4.53433 -5.63933,-11.61359 -7.07734,-20.01759 -1.43799,-8.404 1.21526,-18.13517 4.64306,-25.32356 3.42782,-7.18839 7.63038,-11.83244 4.86583,-15.04037 -2.76455,-3.20791 -14.55962,-5.70148 -22.22637,-6.85728 -7.0005,-1.05534 -14.1183,-1.58391 -21.23745,-1.58391 z m -78.78532,15.04037 c -2.37769,-0.0484 -4.82626,0.14727 -7.25937,0.58956 -9.73242,1.76915 -19.23883,7.51706 -24.65793,13.93188 -5.41912,6.41483 -6.74888,13.49395 -2.98852,14.82031 3.76036,1.32637 12.60745,-3.09784 20.34904,-5.42006 7.74159,-2.32223 14.37569,-2.54292 15.14905,0.11138 0.77337,2.65421 -4.3139,8.18362 -9.51163,14.26606 -5.19771,6.08244 -10.50214,12.71705 -10.28048,22.89201 0.22164,10.17496 5.96857,23.88857 10.50327,31.62933 4.5346,7.74075 7.85493,9.50817 10.84014,18.46629 2.98519,8.9581 5.63579,25.10361 9.17474,41.2496 3.53895,16.146 7.96639,32.29242 12.16866,38.92674 4.20226,6.63431 8.18179,3.75923 11.72042,-1.5486 3.53856,-5.30783 6.63312,-13.04991 5.74881,-23.99776 -0.88432,-10.94784 -5.74822,-25.10114 -9.06607,-39.0354 -3.31781,-13.93424 -5.08866,-27.64675 -9.51162,-37.82097 -4.42294,-10.17423 -11.4998,-16.80922 -15.26042,-22.44915 -3.76063,-5.63994 -4.20296,-10.28608 -1.21714,-16.03745 2.98585,-5.75135 9.39983,-12.60816 12.71747,-20.6805 3.31764,-8.07234 3.53933,-17.36099 -1.32581,-23.11206 -3.64885,-4.31331 -10.1595,-6.63595 -17.29261,-6.78121 z m 157.56793,0 c -7.13313,0.14526 -13.64378,2.4679 -17.29262,6.78121 -4.86514,5.75107 -4.64074,15.03972 -1.32309,23.11206 3.31764,8.07234 9.73162,14.92915 12.71746,20.6805 2.98583,5.75137 2.54348,10.39751 -1.21714,16.03745 -3.76063,5.63993 -10.84019,12.27492 -15.26314,22.44915 -4.42296,10.17422 -6.19379,23.88673 -9.51161,37.82097 -3.31784,13.93426 -8.17906,28.08756 -9.06335,39.0354 -0.88434,10.94785 2.21027,18.68993 5.74881,23.99776 3.53856,5.30783 7.51815,8.18291 11.7204,1.5486 4.20228,-6.63432 8.62973,-22.78074 12.16868,-38.92674 3.53893,-16.14599 6.18955,-32.2915 9.17474,-41.2496 2.9852,-8.95812 6.3056,-10.72554 10.84013,-18.46629 4.5346,-7.74076 10.28163,-21.45437 10.50328,-31.62933 0.22165,-10.17496 -5.08549,-16.80957 -10.28321,-22.89201 -5.19772,-6.08244 -10.28497,-11.61185 -9.51161,-14.26606 0.77334,-2.65426 7.41016,-2.43353 15.15176,-0.11138 7.74158,2.32222 16.58596,6.74643 20.34632,5.42006 3.76037,-1.32636 2.4333,-8.40548 -2.9858,-14.82031 -5.41911,-6.41482 -14.92824,-12.16273 -24.66065,-13.93188 -2.43311,-0.44229 -4.88167,-0.63797 -7.25936,-0.58956 z m -196.2909,98.51494 c -0.52837,-0.005 -1.06372,0.0836 -1.60294,0.27711 -4.31369,1.54765 -8.95654,9.73108 -11.83179,22.44917 -2.87524,12.71807 -3.98057,29.96806 -3.64868,45.56121 0.33189,15.59317 2.09952,29.52735 5.86019,37.04668 3.7607,7.51934 9.51123,8.62452 12.71748,4.75445 3.20625,-3.87006 3.87383,-12.71512 5.31141,-21.78352 1.43757,-9.06843 3.64843,-18.35978 5.86019,-26.54343 2.21176,-8.18365 4.42291,-15.26084 4.09154,-23.88636 -0.33138,-8.62551 -3.20933,-18.7986 -6.63721,-26.42932 -2.99939,-6.67686 -6.42148,-11.4048 -10.12019,-11.44599 z m 235.01385,0 c -3.69871,0.0412 -7.12079,4.76913 -10.12019,11.44599 -3.42787,7.63072 -6.30311,17.80381 -6.63449,26.42932 -0.33136,8.62552 1.87979,15.70271 4.09154,23.88636 2.21176,8.18365 4.42263,17.475 5.8602,26.54343 1.43757,9.0684 2.10515,17.91346 5.31141,21.78352 3.20624,3.87007 8.95406,2.76489 12.71476,-4.75445 3.76068,-7.51929 5.53099,-21.45351 5.86291,-37.04668 0.33187,-15.59315 -0.77345,-32.84314 -3.64869,-45.56121 -2.87525,-12.71809 -7.5181,-20.90152 -11.83179,-22.44917 -0.53922,-0.19351 -1.07726,-0.28267 -1.60566,-0.27711 z M 333.43394,528.42718 c -13.51021,10e-4 -27.60436,2.6257 -39.33698,6.70512 -15.64348,5.43921 -27.08776,13.46597 -32.26777,21.38144 -5.18002,7.91548 -4.09656,15.71774 -1.50241,25.94844 2.59415,10.2307 6.69874,22.8889 14.56491,33.97394 7.86618,11.08506 19.49203,20.59696 31.95806,26.40215 12.46605,5.8052 25.77055,7.9024 37.13362,7.7647 11.36306,-0.13772 20.78365,-2.51001 27.93172,-5.72164 7.14806,-3.21164 12.02443,-7.26313 17.12146,-7.72395 5.09704,-0.46083 10.41468,2.66859 12.60337,10.3321 2.1887,7.66353 1.24966,19.86056 -3.44223,31.74614 -4.69188,11.8856 -13.13829,23.46093 -18.14298,35.19109 -5.00469,11.73018 -6.5683,23.61333 -3.4395,30.9637 3.1288,7.35038 10.94917,10.16684 17.36054,8.75905 6.41136,-1.40777 11.41663,-7.03873 16.26565,-9.85393 4.84902,-2.81521 9.53921,-2.81499 13.13587,1.5649 3.59666,4.37988 6.09958,13.13801 7.19416,11.26125 1.09456,-1.87678 0.78095,-14.3875 -0.47001,-24.70955 -1.25096,-10.32207 -3.43846,-18.45347 -7.66145,-18.29785 -4.22299,0.1556 -10.47888,8.59969 -11.57369,8.75634 -1.09488,0.15662 2.96946,-7.97542 6.56658,-17.51539 3.59712,-9.53998 6.72523,-20.48887 7.97659,-30.34155 1.25138,-9.85268 0.62738,-18.61018 -1.8746,-28.30664 -2.50206,-9.69646 -6.88251,-20.32919 -9.88111,-31.40655 -2.99862,-11.07735 -4.61441,-22.59705 -7.95217,-33.96036 -3.33774,-11.36329 -8.39807,-22.56927 -18.06418,-32.10206 -9.66612,-9.53277 -23.93824,-17.39243 -40.99696,-19.89533 -4.26467,-0.62573 -8.7031,-0.91605 -13.20649,-0.91556 z m 333.13212,0 c -4.5034,-4.9e-4 -8.94183,0.28983 -13.20651,0.91556 -17.05871,2.5029 -31.33083,10.36256 -40.99694,19.89533 -9.66613,9.53279 -14.72644,20.73877 -18.06419,32.10206 -3.33775,11.36331 -4.95355,22.88301 -7.95216,33.96036 -2.9986,11.07736 -7.37905,21.71009 -9.88111,31.40655 -2.502,9.69646 -3.12598,18.45396 -1.87461,28.30664 1.25137,9.85268 4.37948,20.80157 7.9766,30.34155 3.59712,9.53997 7.66152,17.67201 6.56658,17.51539 -1.09487,-0.15665 -7.3507,-8.60074 -11.57369,-8.75634 -4.22299,-0.15562 -6.4105,7.97578 -7.66146,18.29785 -1.25095,10.32205 -1.56457,22.83277 -0.47001,24.70955 1.09458,1.87676 3.5975,-6.88137 7.19415,-11.26125 3.59667,-4.37989 8.28687,-4.38011 13.13587,-1.5649 4.84903,2.8152 9.8543,8.44616 16.26567,9.85393 6.41137,1.40779 14.23173,-1.40867 17.36053,-8.75905 3.1288,-7.35037 1.5652,-19.23352 -3.4395,-30.9637 -5.0047,-11.73016 -13.45109,-23.30549 -18.14298,-35.19109 -4.69187,-11.88558 -5.63093,-24.08261 -3.44222,-31.74614 2.18869,-7.66351 7.50633,-10.79293 12.60335,-10.3321 5.09705,0.46082 9.97341,4.51231 17.12147,7.72395 7.14808,3.21163 16.56866,5.58392 27.93172,5.72164 11.36308,0.1377 24.66758,-1.9595 37.13361,-7.7647 12.46605,-5.80519 24.0919,-15.31709 31.95806,-26.40215 7.86619,-11.08504 11.97077,-23.74324 14.56492,-33.97394 2.59415,-10.2307 3.67761,-18.03296 -1.5024,-25.94844 -5.18003,-7.91547 -16.6243,-15.94223 -32.26778,-21.38144 -11.73261,-4.07942 -25.82676,-6.70373 -39.33697,-6.70512 z M 331.49954,545.19 c 1.18647,-0.0164 2.37562,-0.003 3.56448,0.038 9.51088,0.33207 19.02205,2.54222 27.09495,6.63449 8.07287,4.09228 14.70757,10.06317 19.35197,15.70328 4.64439,5.64021 7.29769,10.95055 8.40315,17.91748 1.10543,6.96694 0.66358,15.59259 -1.88006,23.11208 -2.54362,7.51948 -7.18757,13.93323 -13.71182,18.57767 -6.52426,4.64444 -14.92902,7.51753 -23.88636,8.29176 -8.95732,0.77437 -18.46907,-0.55177 -27.09493,-3.5373 -8.62588,-2.98554 -16.36442,-7.63095 -22.55785,-15.37182 -6.19341,-7.74089 -10.84033,-18.57743 -13.16303,-28.30937 -2.32271,-9.73193 -2.32184,-18.35795 1.21714,-24.88344 3.53899,-6.52547 10.61732,-10.94875 18.91185,-13.93461 7.25773,-2.61262 15.44523,-4.12355 23.75051,-4.23825 z m 337.00091,0 c 8.30529,0.11463 16.49279,1.62563 23.75051,4.23825 8.29454,2.98586 15.37286,7.40914 18.91185,13.93461 3.53899,6.52549 3.53985,15.15151 1.21714,24.88344 -2.32271,9.73194 -6.96961,20.56837 -13.16303,28.30937 -6.19342,7.74087 -13.93196,12.38628 -22.55784,15.37182 -8.62587,2.98553 -18.13761,4.31169 -27.09494,3.5373 -8.95734,-0.7743 -17.36209,-3.64732 -23.88635,-8.29176 -6.52426,-4.64444 -11.16821,-11.05819 -13.71184,-18.57767 -2.54362,-7.51949 -2.98538,-16.14514 -1.88005,-23.11207 1.10541,-6.96694 3.75876,-12.27718 8.40316,-17.91749 4.64439,-5.64017 11.2791,-11.611 19.35197,-15.70327 8.07289,-4.09228 17.58406,-6.30243 27.09494,-6.63449 1.18887,-0.0408 2.37802,-0.0545 3.56448,-0.038 z m -328.85857,15.13546 c -0.26854,-0.0139 -0.54121,0.0387 -0.81776,0.163 -2.21236,0.99478 -4.64504,6.52457 -5.64014,13.16032 -0.99511,6.63575 -0.55503,14.37574 0.88298,20.90057 1.438,6.52482 3.87171,11.83287 6.08297,11.16889 2.21125,-0.664 4.20295,-7.29782 4.97723,-14.81759 0.77428,-7.51978 0.33037,-15.92325 -0.88569,-21.89493 -1.06406,-5.22521 -2.71985,-8.58771 -4.59959,-8.68026 z m 320.71623,0 c -1.87974,0.0925 -3.53554,3.45505 -4.59959,8.68026 -1.21606,5.97168 -1.65997,14.37515 -0.88569,21.89493 0.77428,7.51977 2.76599,14.15359 4.97724,14.81759 2.21125,0.66398 4.64497,-4.64407 6.08297,-11.16889 1.438,-6.52483 1.87808,-14.26482 0.88297,-20.90057 -0.99511,-6.63575 -3.42778,-12.16554 -5.64014,-13.16032 -0.27654,-0.12435 -0.54923,-0.17691 -0.81776,-0.163 z M 363.99282,785.2952 c -1.34646,-0.0155 -2.54642,0.31044 -3.3091,1.07315 -1.87739,1.87744 -1.09585,6.41105 1.71976,8.3651 2.8156,1.95406 7.66236,1.32979 9.53878,-0.54608 1.87642,-1.87585 0.78243,-5.00487 -2.03218,-6.96051 -1.67116,-1.16117 -3.94935,-1.90903 -5.91726,-1.93166 z m 272.01435,0 c -1.9679,0.0227 -4.24609,0.77049 -5.91725,1.93166 -2.81462,1.95564 -3.90861,5.08466 -2.03218,6.96051 1.87642,1.87587 6.72316,2.50014 9.53878,0.54608 2.81561,-1.95405 3.59714,-6.48766 1.71976,-8.3651 -0.76269,-0.76271 -1.96264,-1.08859 -3.30911,-1.07315 z m -293.37406,2.0838 c -0.0818,-1.6e-4 -0.16412,0.003 -0.24723,0.005 -2.65917,0.0775 -5.94326,1.48332 -6.09928,3.75193 -0.15602,2.26863 2.81373,5.39566 5.47168,5.31684 2.65798,-0.0789 5.0047,-3.3619 5.16199,-5.62928 0.15236,-2.1965 -1.75045,-3.43991 -4.28716,-3.44493 z m 314.73377,0 c -2.5367,0.005 -4.43953,1.24845 -4.28715,3.44493 0.1573,2.26738 2.50401,5.55041 5.16197,5.62928 2.65796,0.0789 5.62771,-3.04821 5.4717,-5.31684 -0.15602,-2.26861 -3.44011,-3.67446 -6.0993,-3.75194 -0.083,-0.003 -0.16543,-0.005 -0.24722,-0.005 z m -262.00826,1.20357 c -2.2685,0.0626 -4.67246,0.86181 -6.44704,2.47502 -2.58123,2.34649 -3.83268,6.41302 -1.79855,9.0715 2.03412,2.65846 7.35211,3.91144 10.87005,2.73855 3.51793,-1.17289 5.23942,-4.77191 5.16196,-7.74296 -0.0774,-2.97106 -1.95619,-5.31704 -4.84953,-6.17806 -0.90416,-0.26908 -1.90575,-0.39249 -2.93689,-0.36405 z m 209.28276,0 c -1.03115,-0.0284 -2.03273,0.095 -2.9369,0.36405 -2.89334,0.86102 -4.77205,3.207 -4.84953,6.17806 -0.0775,2.97105 1.64403,6.57007 5.16197,7.74296 3.51794,1.17289 8.83591,-0.0801 10.87004,-2.73855 2.03412,-2.65848 0.78268,-6.72501 -1.79854,-9.0715 -1.7746,-1.61321 -4.17855,-2.41243 -6.44704,-2.47502 z m -203.89801,27.34216 c -2.67205,-0.004 -5.92625,1.74062 -7.68591,4.14588 -2.34623,3.20702 -2.03381,7.58564 0.70366,9.30513 2.73744,1.7195 7.89701,0.7819 10.24244,-2.4234 2.34544,-3.2053 1.87809,-8.6788 -0.85852,-10.40003 -0.68416,-0.4303 -1.51099,-0.62624 -2.40167,-0.62758 z m 198.51326,0 c -0.89068,0.001 -1.71752,0.19728 -2.40168,0.62758 -2.73662,1.72123 -3.20395,7.19473 -0.85852,10.40003 2.34544,3.2053 7.50499,4.1429 10.24245,2.4234 2.73746,-1.71949 3.04988,-6.09811 0.70366,-9.30513 -1.75967,-2.40526 -5.01387,-4.15005 -7.68591,-4.14588 z m -223.39398,0.46186 c -0.10767,-2.5e-4 -0.21577,0.002 -0.32331,0.008 -3.44142,0.1558 -6.72484,2.97161 -6.72414,5.86563 7.1e-4,2.89404 3.28411,5.86518 6.72414,5.70806 3.44003,-0.15711 7.03859,-3.4429 7.03931,-6.33564 7.1e-4,-2.80234 -3.37626,-5.23833 -6.716,-5.24619 z m 248.2747,0 c -3.33975,0.008 -6.71672,2.44385 -6.71601,5.24619 7.3e-4,2.89274 3.59928,6.17854 7.03931,6.33564 3.44002,0.15712 6.72344,-2.81402 6.72415,-5.70806 6.9e-4,-2.89402 -3.28272,-5.70983 -6.72415,-5.86562 -0.10752,-0.005 -0.21563,-0.008 -0.3233,-0.008 z m -276.02439,0.93458 c -1.9565,-0.0125 -4.00666,0.67264 -5.41464,2.12457 -2.50304,2.5812 -2.97353,7.58401 -0.54881,9.46 2.42474,1.87598 7.7433,0.62629 10.24518,-1.9534 2.50185,-2.57969 2.18714,-6.49034 -0.23637,-8.36783 -1.06028,-0.82141 -2.52365,-1.25327 -4.04536,-1.26334 z m 303.77408,0 c -1.52171,0.01 -2.98509,0.44193 -4.04537,1.26334 -2.4235,1.87749 -2.73821,5.78814 -0.23636,8.36783 2.50187,2.57969 7.82043,3.82938 10.24517,1.9534 2.42472,-1.87599 1.95422,-6.8788 -0.54881,-9.46 -1.40797,-1.45193 -3.45813,-2.13708 -5.41463,-2.12457 z m -234.65796,24.73401 c -0.52108,0.0125 -1.07978,0.13577 -1.65183,0.37765 -2.03399,0.85991 -4.22413,3.2061 -3.67586,5.08318 0.54828,1.87709 3.83345,3.28628 5.86563,2.42613 2.03217,-0.86006 2.815,-3.98868 2.26854,-5.86563 -0.39274,-1.34906 -1.47483,-2.05213 -2.80648,-2.02133 z m 165.54183,0 c -1.33164,-0.0307 -2.41373,0.67227 -2.80649,2.02133 -0.54643,1.87695 0.23638,5.00561 2.26856,5.86563 2.03218,0.86011 5.31734,-0.54904 5.86563,-2.42613 0.54826,-1.87708 -1.64188,-4.22327 -3.67587,-5.08318 -0.57205,-0.24188 -1.13075,-0.36513 -1.65183,-0.37765 z m -184.68459,1.16825 c -1.34154,0.0268 -2.72864,0.89748 -3.85791,2.02674 -1.64254,1.64256 -2.73677,3.82955 -0.93731,5.08048 1.79947,1.25094 6.49248,1.56535 8.1342,-0.0761 1.64171,-1.64138 0.23372,-5.23837 -1.5649,-6.4905 -0.56207,-0.39129 -1.16434,-0.55283 -1.77408,-0.54064 z m 203.82736,0 c -0.60979,-0.0125 -1.21203,0.14935 -1.77409,0.54064 -1.79861,1.25213 -3.20662,4.84912 -1.5649,6.4905 1.64173,1.64142 6.33474,1.32699 8.13419,0.0761 1.79947,-1.25094 0.70525,-3.43792 -0.9373,-5.08048 -1.12928,-1.12926 -2.51633,-1.9999 -3.8579,-2.02674 z m -229.16723,6.2324 c -1.56153,-0.004 -3.36361,1.34513 -4.94735,3.22215 -2.11164,2.50272 -3.83421,5.94397 -2.0349,7.27296 1.79932,1.32898 7.11811,0.54533 9.22906,-1.95612 2.11095,-2.50144 1.01614,-6.72233 -0.78245,-8.05268 -0.44964,-0.33253 -0.94387,-0.48497 -1.46436,-0.48631 z m 254.50709,0 c -0.52049,10e-4 -1.01471,0.15381 -1.46436,0.48631 -1.79858,1.33028 -2.8934,5.55124 -0.78245,8.05268 2.11096,2.50145 7.42974,3.2851 9.22906,1.95612 1.79931,-1.32899 0.0768,-4.77024 -2.03489,-7.27296 -1.58375,-1.87702 -3.38583,-3.22632 -4.94736,-3.22215 z M 464.8062,884.42141 c 2.51902,-0.10739 4.63358,0.58209 6.68611,2.58643 3.28405,3.20695 6.41067,9.77472 12.43221,13.21465 4.56115,2.60565 10.77769,3.41028 16.07548,2.86898 5.29778,0.5413 11.51433,-0.26334 16.07547,-2.86898 6.02154,-3.43994 9.14816,-10.00769 12.43221,-13.21465 3.28407,-3.20694 6.72626,-3.05114 11.73127,-1.64368 5.00499,1.40747 11.57198,4.06483 17.82783,6.64536 6.25587,2.58053 12.20019,5.08481 17.83055,7.82175 0.37624,0.18289 0.73787,0.36466 1.11119,0.5488 -7.50288,2.61403 -14.31014,5.17929 -22.56599,7.24306 -8.609,2.15206 -19.10268,3.65093 -30.25461,4.45832 -2.23247,-0.0193 -4.67184,0.0656 -7.41423,0.18474 -4.91508,0.21372 -10.70562,0.41902 -16.77369,0.50805 -6.06806,-0.0891 -11.85861,-0.29433 -16.7737,-0.50805 -2.74361,-0.11935 -5.18373,-0.20425 -7.41694,-0.18474 -11.1517,-0.8074 -21.6458,-2.3063 -30.25461,-4.45832 -8.25585,-2.06377 -15.06311,-4.62903 -22.56599,-7.24306 0.37402,-0.1845 0.73692,-0.36555 1.1139,-0.5488 5.63037,-2.73695 11.57469,-5.24122 17.83056,-7.82175 6.25585,-2.58053 12.82282,-5.2379 17.82783,-6.64536 1.87687,-0.52781 3.53374,-0.87831 5.04515,-0.94275 z" />
  </g>
  <metadata
     id="metadata9">
    <rdf:RDF>
      <cc:Work
         rdf:about="">
        <dc:creator>
          <cc:Agent>
            <dc:title>freesvgfiles.org</dc:title>
          </cc:Agent>
        </dc:creator>
        <dc:rights>
          <cc:Agent>
            <dc:title>freesvgfiles.org</dc:title>
          </cc:Agent>
        </dc:rights>
        <dc:source>freesvgfiles.org</dc:source>
        <cc:license
           rdf:resource="https://freesvgfiles.org/" />
      </cc:Work>
    </rdf:RDF>
  </metadata>
</svg>
