<?xml version="1.0" standalone="no"?>
<!DOCTYPE svg PUBLIC "-//W3C//DTD SVG 20010904//EN"
 "http://www.w3.org/TR/2001/REC-SVG-20010904/DTD/svg10.dtd">
<svg version="1.0" xmlns="http://www.w3.org/2000/svg"
 width="700.000000pt" height="700.000000pt" viewBox="0 0 700.000000 700.000000"
 preserveAspectRatio="xMidYMid meet">
<metadata>
Created by potrace 1.14, written by Peter Selinger 2001-2017
</metadata>
<g transform="translate(0.000000,700.000000) scale(0.100000,-0.100000)"
fill="#000000" stroke="none">
<path d="M840 6708 c-128 -64 -217 -283 -213 -523 5 -289 19 -569 28 -585 2
-3 6 -28 9 -55 4 -28 8 -61 11 -75 30 -159 31 -165 23 -745 -2 -206 -2 -212
25 -292 15 -45 61 -148 102 -227 92 -177 97 -204 62 -317 -58 -187 -59 -259
-6 -359 29 -57 34 -75 35 -145 1 -44 -2 -109 -6 -145 -5 -36 -12 -90 -16 -120
-3 -30 -8 -64 -10 -75 -22 -110 -21 -620 0 -745 3 -14 7 -41 10 -60 13 -87 62
-253 101 -345 53 -123 156 -310 218 -395 131 -182 173 -237 233 -305 272 -311
483 -444 872 -545 147 -39 266 -80 396 -139 542 -246 723 -279 1076 -196 84
20 290 100 480 188 140 64 257 106 411 146 232 61 363 116 516 218 206 138
435 391 632 701 196 307 279 551 298 872 14 227 4 526 -22 685 -15 97 -20 151
-20 240 0 96 2 103 38 175 35 70 37 80 33 150 -2 47 -16 114 -36 179 -42 135
-39 157 49 325 72 138 114 243 128 317 4 24 6 132 4 239 -8 446 -6 552 14 660
7 38 33 219 39 270 7 57 19 413 18 541 -2 226 -104 451 -225 492 -94 32 -233
0 -432 -99 -236 -116 -425 -285 -726 -649 -96 -115 -181 -219 -190 -230 -290
-349 -361 -411 -530 -465 -128 -41 -201 -42 -390 -6 -191 37 -227 41 -374 41
-154 0 -209 -6 -386 -41 -136 -26 -215 -32 -279 -21 -153 28 -256 77 -349 166
-90 87 -123 124 -456 526 -244 295 -410 463 -555 564 -258 179 -524 266 -640
209z m244 -348 c156 -87 446 -325 592 -487 49 -54 59 -71 43 -68 -132 26 -408
26 -474 0 -67 -25 -50 -34 97 -51 117 -13 523 -134 552 -165 8 -8 6 -10 -9 -6
-181 51 -604 37 -622 -20 -5 -13 24 -20 117 -28 125 -11 155 -16 246 -35 88
-18 374 -107 374 -116 0 -2 -12 -2 -27 2 -49 10 -326 13 -376 3 -27 -5 -63
-11 -80 -13 -67 -9 -157 -36 -157 -47 0 -13 30 -18 140 -24 234 -13 328 -24
435 -51 147 -37 128 -22 163 -132 17 -53 45 -148 62 -211 45 -166 74 -214 134
-225 38 -7 131 25 236 81 353 188 450 230 570 248 25 4 47 8 50 10 3 2 35 6
70 9 36 4 81 8 100 11 39 6 308 6 355 1 17 -2 61 -7 99 -10 38 -4 72 -9 75
-11 3 -1 24 -6 46 -9 126 -20 227 -62 486 -202 347 -187 382 -179 459 96 17
63 45 158 62 212 l30 96 76 21 c155 42 185 46 497 66 95 7 135 14 135 25 0 4
-10 11 -22 14 -84 24 -133 35 -180 42 -66 10 -327 11 -390 2 -27 -4 -48 -5
-48 -4 0 2 55 22 123 44 193 65 301 89 482 106 135 14 159 23 118 45 -85 44
-433 48 -603 6 -52 -13 -3 14 80 45 184 67 377 116 535 135 27 3 53 9 58 14
10 10 -33 28 -93 39 -79 15 -343 5 -412 -14 -36 -10 -15 17 100 133 179 180
415 366 547 431 114 57 129 38 180 -228 3 -13 7 -40 10 -60 3 -19 9 -64 14
-100 9 -64 8 -415 -2 -455 -3 -11 -8 -42 -11 -70 -4 -27 -16 -97 -28 -155 -11
-58 -21 -112 -23 -120 -1 -8 -8 -46 -15 -85 -15 -78 -18 -234 -7 -310 22 -141
26 -186 23 -228 -5 -52 -11 -67 -30 -67 -12 0 -35 37 -101 164 -40 77 -93 132
-134 138 -43 6 -91 -19 -116 -60 -50 -85 -82 -109 -181 -142 -141 -47 -146
-63 -57 -187 30 -43 64 -112 99 -202 28 -75 61 -154 73 -175 26 -45 23 -53
-10 -28 -120 93 -339 175 -524 198 -134 17 -307 2 -291 -25 3 -5 54 -28 113
-51 420 -167 751 -438 934 -765 l33 -59 -1 -146 c-1 -80 3 -176 8 -214 17
-120 14 -122 -76 -31 -90 91 -151 140 -212 173 -118 63 -255 85 -266 43 -6
-26 15 -59 117 -183 144 -177 276 -399 333 -561 45 -128 38 -288 -18 -415 -73
-167 -98 -197 -160 -195 -45 2 -141 50 -229 116 -144 106 -145 139 -5 282 57
57 100 116 132 178 56 107 41 113 -73 28 -86 -64 -211 -134 -224 -126 -5 3 5
20 21 38 65 69 141 267 141 366 0 84 -23 77 -217 -71 -149 -114 -248 -165
-390 -203 -207 -54 -277 -78 -306 -106 -41 -39 -39 -84 7 -157 20 -31 40 -59
43 -62 14 -10 209 -248 238 -291 127 -185 139 -363 38 -576 -96 -205 -236
-311 -563 -424 l-82 -29 -63 31 c-84 43 -308 132 -383 152 -34 10 -86 19 -115
21 -63 4 -61 -5 -29 153 21 101 30 118 89 177 22 21 47 55 56 75 40 91 31 83
135 130 75 34 160 112 160 147 0 13 -8 29 -18 36 -10 7 -35 36 -57 63 -60 76
-105 112 -158 129 -58 19 -92 8 -155 -48 -68 -62 -139 -61 -210 4 -46 42 -97
62 -134 52 -36 -9 -115 -60 -131 -85 -8 -13 -38 -49 -67 -80 -44 -48 -51 -61
-46 -83 10 -37 79 -98 145 -130 31 -14 67 -31 81 -38 24 -11 34 -26 65 -97 9
-20 40 -61 69 -93 57 -60 65 -81 94 -252 l9 -52 -61 -6 c-63 -7 -261 -70 -354
-112 -29 -13 -55 -24 -57 -24 -2 0 -36 -15 -75 -34 l-70 -35 -88 30 c-94 31
-94 31 -197 79 -210 99 -334 236 -400 444 -26 79 -34 197 -20 270 14 72 91
208 167 298 70 81 197 237 215 263 11 17 25 46 31 67 22 79 -29 112 -260 173
-73 20 -146 40 -163 46 -80 29 -185 90 -283 166 -125 96 -199 143 -218 136
-57 -22 30 -313 126 -422 36 -40 36 -41 9 -36 -32 6 -137 68 -218 129 -85 64
-105 70 -95 29 13 -53 76 -149 149 -228 123 -132 130 -147 100 -205 -18 -36
-137 -123 -234 -172 -115 -58 -150 -44 -214 85 -64 131 -80 191 -81 307 -1
121 16 183 91 334 77 153 222 370 316 471 21 23 77 106 77 114 -2 61 -160 35
-300 -48 -38 -23 -110 -82 -160 -131 -50 -50 -96 -90 -102 -90 -7 0 -8 18 -2
58 4 31 9 134 9 228 l1 171 36 64 c141 250 397 491 693 650 44 24 141 68 214
99 74 30 134 60 133 65 -4 17 -53 26 -157 27 -216 2 -450 -68 -630 -188 -27
-18 -51 -31 -53 -30 -1 2 6 19 17 37 11 19 43 95 71 169 33 87 69 161 101 209
66 97 73 115 51 140 -9 10 -57 33 -107 50 -94 33 -133 63 -180 142 -25 42 -73
67 -116 61 -42 -6 -95 -63 -139 -148 -73 -144 -97 -174 -115 -144 -12 19 -14
94 -4 168 5 42 13 102 17 132 13 108 5 232 -26 390 -17 85 -33 173 -36 195 -4
22 -9 54 -12 70 -13 71 -15 99 -19 270 -4 181 3 265 39 460 40 217 67 242 190
175z m2214 -5569 c9 -10 32 -35 51 -55 44 -48 70 -58 158 -57 91 0 112 11 179
96 18 24 31 29 61 29 37 0 232 -71 268 -97 16 -13 13 -15 -31 -30 -158 -51
-239 -61 -479 -61 -245 -1 -351 14 -509 68 l-37 13 63 28 c90 41 209 84 236
84 12 1 30 -7 40 -18z"/>
<path d="M3448 4955 c-2 -1 -31 -5 -65 -8 -78 -8 -167 -33 -184 -53 -9 -12 -6
-27 19 -82 35 -77 40 -94 46 -141 4 -33 -17 -125 -34 -146 -12 -16 -20 -59
-12 -71 4 -5 25 -23 47 -40 98 -72 120 -117 115 -234 -7 -156 -5 -554 3 -625
7 -69 34 -185 55 -236 23 -59 66 -75 100 -38 30 31 65 156 80 279 7 61 9 503
2 620 -6 117 10 147 143 257 15 13 27 27 27 31 0 5 -11 37 -25 71 -14 34 -27
79 -29 99 -4 43 17 118 50 184 13 26 24 54 24 62 0 16 -60 40 -140 56 -49 9
-216 20 -222 15z"/>
<path d="M2865 4836 c-88 -28 -175 -108 -175 -162 0 -34 24 -36 113 -7 75 23
98 28 135 24 24 -2 11 -34 -40 -95 -28 -33 -59 -78 -68 -99 -33 -73 -2 -200
79 -329 55 -88 75 -153 114 -368 13 -68 57 -221 77 -262 12 -25 29 -49 37 -52
21 -8 50 19 76 69 31 62 26 143 -21 335 -22 91 -48 198 -58 238 -19 84 -50
147 -102 211 -19 24 -41 59 -47 79 -15 43 -10 58 52 150 83 126 76 229 -18
266 -47 19 -99 19 -154 2z"/>
<path d="M3985 4836 c-102 -38 -107 -140 -14 -281 68 -103 67 -129 -7 -220
-52 -65 -81 -129 -104 -233 -12 -53 -38 -157 -56 -231 -50 -197 -50 -271 -1
-346 67 -104 113 -18 192 365 34 165 51 214 93 272 49 69 93 189 95 257 1 65
-11 91 -82 179 -28 35 -51 70 -51 78 0 24 48 22 135 -6 120 -39 138 -33 115
34 -32 97 -208 171 -315 132z"/>
<path d="M2643 4138 c-82 -89 -114 -470 -57 -675 17 -62 55 -98 86 -82 27 15
37 43 53 159 4 25 20 99 37 165 17 66 30 147 31 181 0 95 -57 252 -99 268 -24
9 -29 8 -51 -16z"/>
<path d="M4295 4147 c-49 -58 -87 -172 -87 -257 0 -37 11 -108 25 -165 29
-113 35 -141 44 -205 15 -118 48 -165 92 -134 30 21 48 65 61 150 11 68 15
286 6 334 -3 14 -7 48 -11 75 -17 146 -87 254 -130 202z"/>
<path d="M2150 3279 c-147 -33 -286 -114 -326 -190 -32 -62 -1 -221 69 -353
47 -89 144 -179 241 -225 101 -48 165 -63 266 -63 91 0 169 20 256 64 67 34
99 34 133 -4 37 -39 39 -144 6 -239 -9 -23 -44 -97 -79 -163 -87 -165 -107
-250 -76 -325 28 -68 102 -79 181 -25 96 65 125 61 168 -20 15 -30 22 -36 27
-23 8 22 -2 167 -16 219 -21 75 -39 84 -89 42 -17 -14 -31 -23 -31 -20 0 3 13
39 30 80 84 211 89 345 22 546 -22 69 -43 136 -46 150 -3 14 -8 39 -11 55 -10
53 -45 179 -61 219 -51 132 -180 238 -337 279 -78 21 -224 19 -327 -4z m303
-115 c73 -18 134 -53 191 -111 59 -59 79 -104 84 -184 8 -133 -47 -233 -155
-284 -99 -48 -254 -40 -365 16 -108 55 -189 196 -203 350 -11 122 67 194 240
224 77 13 122 11 208 -11z"/>
<path d="M2362 3068 c-36 -44 -40 -213 -7 -277 19 -38 28 -39 45 -3 15 32 21
192 9 236 -12 42 -32 61 -47 44z"/>
<path d="M4545 3289 c-16 -5 -39 -11 -50 -13 -46 -9 -136 -58 -184 -102 -69
-62 -107 -120 -137 -207 -23 -69 -27 -81 -40 -144 -13 -66 -38 -155 -72 -258
-32 -100 -36 -120 -36 -220 0 -135 10 -181 75 -338 l28 -67 -39 31 c-71 58
-94 19 -106 -180 -5 -86 -4 -94 10 -82 9 8 16 18 16 23 0 6 9 23 21 39 29 41
67 39 141 -11 68 -45 104 -50 154 -20 31 20 49 58 47 100 -3 83 -17 125 -83
254 -82 158 -96 194 -105 266 -9 71 2 124 32 154 34 34 60 33 141 -8 84 -42
150 -58 246 -58 257 -1 471 157 556 412 30 88 37 188 17 227 -60 115 -286 210
-502 211 -55 0 -113 -4 -130 -9z m262 -125 c121 -31 184 -91 188 -183 6 -99
-55 -254 -126 -323 -145 -141 -423 -141 -538 -1 -46 56 -64 121 -59 212 6 83
17 110 69 168 73 83 165 131 269 140 30 3 57 7 58 8 6 6 73 -5 139 -21z"/>
<path d="M4596 3033 c-25 -84 -8 -273 26 -273 5 0 17 19 28 43 34 77 16 260
-27 274 -7 3 -18 -15 -27 -44z"/>
<path d="M2524 1485 c-8 -20 2 -44 21 -51 22 -9 65 4 65 20 0 36 -74 63 -86
31z"/>
<path d="M4407 1482 c-24 -26 -21 -41 10 -48 34 -9 57 6 61 40 3 23 0 26 -26
26 -16 0 -36 -8 -45 -18z"/>
<path d="M2373 1480 c-25 -10 -22 -35 7 -50 22 -12 56 21 47 45 -7 17 -21 18
-54 5z"/>
<path d="M4576 1473 c-4 -10 1 -24 12 -36 20 -19 20 -19 42 3 22 22 22 24 5
37 -26 18 -52 16 -59 -4z"/>
<path d="M2721 1457 c-22 -24 -20 -53 3 -69 23 -16 75 -8 86 11 34 65 -38 112
-89 58z"/>
<path d="M4198 1469 c-20 -11 -23 -41 -8 -70 13 -24 72 -26 94 -3 21 20 20 26
-5 58 -21 27 -51 33 -81 15z"/>
<path d="M2599 1269 c-24 -24 -24 -34 2 -52 25 -18 56 -11 70 15 21 39 -38 71
-72 37z"/>
<path d="M2766 1269 c-28 -22 -33 -48 -14 -67 37 -37 102 15 80 63 -14 30 -31
31 -66 4z"/>
<path d="M4172 1278 c-27 -27 2 -88 42 -88 49 0 61 47 20 79 -30 24 -45 26
-62 9z"/>
<path d="M4338 1270 c-18 -15 -21 -22 -13 -36 18 -29 51 -35 77 -14 18 15 21
22 13 36 -18 29 -51 35 -77 14z"/>
<path d="M2408 1268 c-21 -18 -27 -39 -16 -61 7 -14 16 -17 36 -12 53 13 71
54 33 75 -25 13 -34 13 -53 -2z"/>
<path d="M4535 1266 c-16 -12 -18 -18 -7 -40 15 -33 60 -46 78 -22 14 20 9 45
-14 64 -20 16 -34 15 -57 -2z"/>
<path d="M2894 1089 c-16 -17 -16 -22 -4 -30 23 -14 45 -6 48 17 4 29 -22 37
-44 13z"/>
<path d="M4064 1095 c-14 -35 13 -56 46 -35 12 7 12 12 -4 29 -23 25 -35 26
-42 6z"/>
<path d="M2765 1087 c-25 -19 -13 -47 20 -47 23 0 26 4 23 27 -4 32 -17 38
-43 20z"/>
<path d="M4193 1086 c-16 -19 6 -50 32 -45 25 5 29 23 10 43 -20 19 -26 20
-42 2z"/>
<path d="M2577 1032 c-17 -19 -22 -44 -11 -55 3 -3 19 -1 35 5 23 8 29 16 29
39 0 34 -27 40 -53 11z"/>
<path d="M4370 1021 c0 -23 6 -31 28 -38 35 -13 53 -6 45 15 -19 55 -73 72
-73 23z"/>
</g>
</svg>
